<?xml version="1.0" standalone="no"?>
<!DOCTYPE svg PUBLIC "-//W3C//DTD SVG 20010904//EN"
 "http://www.w3.org/TR/2001/REC-SVG-20010904/DTD/svg10.dtd">
<svg version="1.0" xmlns="http://www.w3.org/2000/svg"
 width="180.000000pt" height="180.000000pt" viewBox="0 0 180.000000 180.000000"
 preserveAspectRatio="xMidYMid meet">

<g transform="translate(0.000000,180.000000) scale(0.100000,-0.100000)"
fill="#000000" stroke="none">
<path d="M820 1769 c-138 -12 -285 -62 -398 -136 -77 -50 -209 -183 -260 -263
-189 -292 -176 -713 31 -985 47 -63 117 -133 178 -180 273 -213 670 -237 974
-59 107 63 246 202 309 309 152 260 158 610 14 864 -173 308 -497 480 -848
450z m546 -182 c4 -4 106 -182 120 -209 l15 -28 -143 0 -143 1 -67 118 c-38
66 -68 121 -68 125 0 5 281 -2 286 -7z m-282 -152 c36 -63 66 -119 66 -125 0
-21 -133 -241 -141 -233 -4 4 -37 60 -73 123 -58 102 -64 117 -52 135 7 11 32
54 56 95 53 93 69 120 74 120 2 0 33 -52 70 -115z m-234 38 c0 -5 -11 -26 -23
-48 -22 -39 -24 -40 -84 -43 l-62 -3 -30 -49 c-30 -49 -32 -50 -81 -50 -27 0
-50 3 -50 7 0 7 51 99 87 156 l23 37 110 0 c61 0 110 -3 110 -7z m620 -260
c-18 -32 -49 -86 -68 -120 l-36 -63 -143 0 -143 0 30 53 c17 28 47 82 68 119
l37 68 143 0 144 0 -32 -57z m-747 -148 l67 -120 -132 -3 c-73 -1 -137 -1
-143 2 -15 5 -144 233 -137 241 3 3 67 4 141 3 l136 -3 68 -120z m-349 -38
c36 -63 66 -119 66 -126 0 -22 -132 -243 -141 -234 -4 4 -36 57 -70 118 -53
94 -60 113 -52 135 10 28 122 220 128 220 2 0 33 -51 69 -113z m1195 -26 c28
-49 51 -94 51 -100 0 -11 -99 -191 -106 -191 -2 0 -15 20 -29 45 l-27 44 28
52 28 51 -27 49 c-27 47 -27 49 -11 81 16 32 34 58 39 58 1 0 26 -40 54 -89z
m-781 -149 c-1 -4 -32 -58 -67 -120 l-64 -112 -144 0 -145 0 14 23 c8 12 41
66 72 120 l57 97 140 0 c78 0 139 -4 137 -8z m643 -196 c38 -65 69 -120 69
-122 0 -2 -64 -4 -142 -4 l-143 1 -67 118 c-38 65 -68 121 -68 125 0 4 63 5
141 4 l141 -3 69 -119z m-347 -41 c36 -63 66 -119 66 -125 0 -21 -133 -241
-141 -233 -4 4 -37 59 -73 121 l-64 113 55 97 c66 116 82 142 87 142 3 0 34
-52 70 -115z m-432 -145 l28 -50 60 0 c57 0 60 -1 85 -37 40 -60 37 -63 -74
-63 -55 0 -106 3 -115 6 -14 5 -116 171 -116 188 0 3 24 6 53 6 l52 0 27 -50z
m818 -77 c-18 -32 -49 -86 -69 -120 l-36 -63 -143 0 c-79 0 -141 3 -139 8 35
61 122 210 130 220 7 8 49 12 149 12 l140 0 -32 -57z"/>
</g>
</svg>
